# File created by Blade
# Date/Time:  Thu Jan 15 17:55:17 2015
#---------------------------------------------------------
:version 1.10
:name HOM
:units
  mass 1.0
  length 1.000000
  angle deg
:documentation
     Acclaim Skeleton File
:root
   axis xyz
   order TX TY TZ RX RY RZ
   position 0.000000 0.000000 0.000000
   orientation 0 0 0
:bonedata
   begin
      id 1
      name Spine_dum
      direction 0.000000 1.000000 0.000000
      length 5.015652
      axis 0.0 0.0 0.0 xyz
   end
   begin
      id 2
      name LeftUpLeg_dum
      direction 1.000000 0.000000 0.000000
      length 4.275145
      axis 0.0 0.0 0.0 xyz
   end
   begin
      id 3
      name RightUpLeg_dum
      direction -1.000000 0.000000 0.000000
      length 4.275145
      axis 0.0 0.0 0.0 xyz
   end
   begin
      id 4
      name Spine
      direction 0.000000 1.000000 0.000000
      length 0.000000
      axis 0.0 0.0 0.0 xyz
      dof rx ry rz
   end
   begin
      id 5
      name Spine_dum1
      direction 0.000000 1.000000 0.000000
      length 15.980521
      axis 0.0 0.0 0.0 xyz
   end
   begin
      id 6
      name Spine_dum2
      direction 0.000000 1.000000 0.000000
      length 12.162712
      axis 0.0 0.0 0.0 xyz
   end
   begin
      id 7
      name Spine_dum3
      direction 0.000000 1.000000 0.000000
      length 12.162712
      axis 0.0 0.0 0.0 xyz
   end
   begin
      id 8
      name Head
      direction 0.000000 1.000000 0.000000
      length 4.527550
      axis 0.0 0.0 0.0 xyz
      dof rx ry rz
   end
   begin
      id 9
      name LeftShoulder
      direction 1.000000 0.000000 0.000000
      length 7.205867
      axis 0.0 0.0 -90.0 xyz
      dof rx ry rz
   end
   begin
      id 10
      name LeftArm
      direction 1.000000 0.000000 0.000000
      length 10.786708
      axis 0.0 0.0 -90.0 xyz
      dof rx ry rz
   end
   begin
      id 11
      name LeftForeArm
      direction 1.000000 0.000000 0.000000
      length 7.946034
      axis 0.0 0.0 -90.0 xyz
      dof rz ry rx
   end
   begin
      id 12
      name LeftHand
      direction 0.000000 0.000000 0.000000
      length 0.000000
      axis 0.0 0.0 -90.0 xyz
      dof rx ry rz
   end
   begin
      id 13
      name LeftHand_dum1
      direction 0.000000 0.000000 0.000000
      length 0.000000
      axis 0.0 0.0 -90.0 xyz
   end
   begin
      id 14
      name LeftHand_dum2
      direction 1.000000 0.000000 0.000000
      length 3.937000
      axis 0.0 0.0 -90.0 xyz
   end
   begin
      id 15
      name LeftHandThumb1
      direction 0.000000 0.000000 1.000000
      length 3.937000
      axis 0.0 0.0 -90.0 xyz
      dof rx ry rz
   end
   begin
      id 16
      name RightShoulder
      direction -1.000000 0.000000 0.000000
      length 7.205867
      axis 0.0 0.0 90.0 xyz
      dof rx ry rz
   end
   begin
      id 17
      name RightArm
      direction -1.000000 0.000000 0.000000
      length 10.786708
      axis 0.0 0.0 90.0 xyz
      dof rx ry rz
   end
   begin
      id 18
      name RightForeArm
      direction -1.000000 0.000000 0.000000
      length 7.946034
      axis 0.0 0.0 90.0 xyz
      dof rz ry rx
   end
   begin
      id 19
      name RightHand
      direction 0.000000 0.000000 0.000000
      length 0.000000
      axis 0.0 0.0 90.0 xyz
      dof rx ry rz
   end
   begin
      id 20
      name RightHand_dum1
      direction 0.000000 0.000000 0.000000
      length 0.000000
      axis 0.0 0.0 90.0 xyz
   end
   begin
      id 21
      name RightHand_dum2
      direction -1.000000 0.000000 0.000000
      length 3.937000
      axis 0.0 0.0 90.0 xyz
   end
   begin
      id 22
      name RightHandThumb1
      direction 0.000000 0.000000 1.000000
      length 3.937000
      axis 0.0 0.0 90.0 xyz
      dof rx ry rz
   end
   begin
      id 23
      name LeftUpLeg
      direction 0.000000 -1.000000 0.000000
      length 17.046659
      axis 0.0 0.0 0.0 xyz
      dof rx ry rz
   end
   begin
      id 24
      name LeftLeg
      direction 0.000000 -1.000000 0.000000
      length 17.458438
      axis 0.0 0.0 0.0 xyz
      dof rx ry rz
   end
   begin
      id 25
      name LeftFoot
      direction 0.000000 -0.258819 0.965926
      length 5.099406
      axis 15.0 0.0 0.0 xyz
      dof rx ry rz
   end
   begin
      id 26
      name LeftToeBase
      direction 0.000000 0.000000 1.000000
      length 2.952750
      axis 0.0 0.0 0.0 xyz
      dof rx ry rz
   end
   begin
      id 27
      name RightUpLeg
      direction 0.000000 -1.000000 0.000000
      length 17.046659
      axis 0.0 0.0 0.0 xyz
      dof rx ry rz
   end
   begin
      id 28
      name RightLeg
      direction 0.000000 -1.000000 0.000000
      length 17.458438
      axis 0.0 0.0 0.0 xyz
      dof rx ry rz
   end
   begin
      id 29
      name RightFoot
      direction 0.000000 -0.258819 0.965926
      length 5.099406
      axis 15.0 0.0 0.0 xyz
      dof rx ry rz
   end
   begin
      id 30
      name RightToeBase
      direction 0.000000 0.000000 1.000000
      length 2.952750
      axis 0.0 0.0 0.0 xyz
      dof rx ry rz
   end
:hierarchy
   begin
      root Spine_dum LeftUpLeg_dum RightUpLeg_dum
      Spine_dum Spine
      LeftUpLeg_dum LeftUpLeg
      RightUpLeg_dum RightUpLeg
      Spine Spine_dum1 Spine_dum2 Spine_dum3
      Spine_dum1 Head
      Spine_dum2 LeftShoulder
      Spine_dum3 RightShoulder
      LeftShoulder LeftArm
      LeftArm LeftForeArm
      LeftForeArm LeftHand
      LeftHand LeftHand_dum1 LeftHand_dum2
      LeftHand_dum1 LeftHandThumb1
      RightShoulder RightArm
      RightArm RightForeArm
      RightForeArm RightHand
      RightHand RightHand_dum1 RightHand_dum2
      RightHand_dum1 RightHandThumb1
      LeftUpLeg LeftLeg
      LeftLeg LeftFoot
      LeftFoot LeftToeBase
      RightUpLeg RightLeg
      RightLeg RightFoot
      RightFoot RightToeBase
   end

# File created by Blade
# Date/Time:  Thu Jan 15 17:55:09 2015
# Frame Rate: 120.000 fps
#------------------------------------------------------
:FULLY-SPECIFIED
:DEGREES
992
root 6.681467 35.504698 -12.539551 10.863230 -9.486341 0.203679
Spine -1.440076 -13.001675 -3.626073
Head -17.186909 12.979820 13.649117
LeftShoulder -33.783415 3.947916 15.703092
LeftArm -0.667888 -47.699022 -18.351218
LeftForeArm -0.000000 14.711854 -3.458647
LeftHand 8.407498 -0.000000 24.176515
LeftHandThumb1 -26.253704 33.147579 0.000000
RightShoulder -0.995577 26.542573 -19.288933
RightArm 2.184149 46.199919 18.103090
RightForeArm -0.000000 -37.063593 12.589722
RightHand -4.801648 -0.000000 -6.949514
RightHandThumb1 -24.326973 -32.862282 -0.000000
LeftUpLeg -6.563950 10.597993 6.356675
LeftLeg 1.322511 -0.000000 -0.000000
LeftFoot -21.809279 11.698984 -19.130840
LeftToeBase 25.988673 -0.000000 -0.000000
RightUpLeg -9.296364 -14.268442 -2.927522
RightLeg -5.057410 -0.000000 0.000000
RightFoot -16.435199 -23.347868 14.473210
RightToeBase 27.513806 -0.000000 -0.000000
993
root 6.525017 35.501786 -12.536485 10.880440 -9.775702 -0.195606
Spine -1.502462 -13.041696 -4.241693
Head -16.911758 12.866496 14.171584
LeftShoulder -33.755028 3.828223 15.554504
LeftArm -0.443110 -47.741598 -18.745019
LeftForeArm -0.000000 15.116733 -3.456290
LeftHand 8.416096 0.000000 24.514931
LeftHandThumb1 -26.253704 33.147579 0.000000
RightShoulder -0.939696 26.821876 -19.802746
RightArm 2.406820 45.817964 17.869067
RightForeArm -0.000000 -37.194640 12.510508
RightHand -4.447298 0.000000 -6.990038
RightHandThumb1 -24.326973 -32.862282 -0.000000
LeftUpLeg -6.339667 11.130405 6.969332
LeftLeg 1.239711 -0.000000 -0.000000
LeftFoot -21.779506 11.506925 -19.264794
LeftToeBase 26.020426 -0.000000 -0.000000
RightUpLeg -9.291252 -13.799020 -2.368513
RightLeg -4.996536 -0.000000 0.000000
RightFoot -16.375104 -23.427471 14.312696
RightToeBase 27.764253 -0.000000 -0.000000
994
root 6.370032 35.497303 -12.533694 10.875774 -10.035039 -0.581085
Spine -1.519026 -13.075072 -4.874916
Head -16.744808 12.739421 14.695909
LeftShoulder -33.698908 3.595814 15.427977
LeftArm -0.280920 -47.527886 -19.047961
LeftForeArm -0.000000 15.266424 -3.418479
LeftHand 8.536460 -0.000000 24.128080
LeftHandThumb1 -26.253704 33.147579 0.000000
RightShoulder -0.959507 27.006043 -20.314387
RightArm 2.725710 45.476331 17.670480
RightForeArm -0.000000 -37.404637 12.406716
RightHand -4.378837 -0.000000 -6.748223
RightHandThumb1 -24.326973 -32.862282 -0.000000
LeftUpLeg -6.077981 11.574334 7.581599
LeftLeg 1.122471 -0.000000 -0.000000
LeftFoot -21.748585 11.368841 -19.428189
LeftToeBase 26.068825 -0.000000 -0.000000
RightUpLeg -9.240015 -13.360784 -1.826458
RightLeg -4.962751 -0.000000 0.000000
RightFoot -16.310632 -23.517579 14.142810
RightToeBase 27.922668 -0.000000 -0.000000
995
root 6.215769 35.491302 -12.530675 10.884637 -10.341977 -0.997406
Spine -1.559154 -13.099679 -5.463232
Head -16.526504 12.666367 15.207945
LeftShoulder -33.684649 3.382228 15.285659
LeftArm -0.088607 -47.337333 -19.351932
LeftForeArm -0.000000 15.699000 -3.442787
LeftHand 8.551110 0.000000 24.781919
LeftHandThumb1 -26.253704 33.147579 0.000000
RightShoulder -0.946187 27.212005 -20.786256
RightArm 3.101806 45.198705 17.484033
RightForeArm -0.000000 -37.646962 12.315050
RightHand -4.461221 0.000000 -6.422702
RightHandThumb1 -24.326973 -32.862282 -0.000000
LeftUpLeg -5.799431 12.110792 8.214157
LeftLeg 0.996826 -0.000000 -0.000000
LeftFoot -21.724570 11.195075 -19.561532
LeftToeBase 26.078789 -0.000000 -0.000000
RightUpLeg -9.239358 -12.981799 -1.240039
RightLeg -4.861085 -0.000000 0.000000
RightFoot -16.231777 -23.509130 13.943744
RightToeBase 28.065630 -0.000000 -0.000000
996
root 6.063014 35.484488 -12.532536 10.901668 -10.602471 -1.385542
Spine -1.590344 -13.154494 -6.076725
Head -16.321981 12.525647 15.722932
LeftShoulder -33.624926 3.150204 15.125064
LeftArm -0.033253 -47.300829 -19.518233
LeftForeArm -0.000000 16.431461 -3.440072
LeftHand 8.787134 -0.000000 24.731495
LeftHandThumb1 -26.253704 33.147579 0.000000
RightShoulder -0.938216 27.380048 -21.269007
RightArm 3.449580 44.997840 17.320188
RightForeArm -0.000000 -37.776882 12.195347
RightHand -4.119559 -0.000000 -6.455381
RightHandThumb1 -24.326973 -32.862282 -0.000000
LeftUpLeg -5.542308 12.502460 8.832854
LeftLeg 0.868570 -0.000000 -0.000000
LeftFoot -21.659282 11.119680 -19.646997
LeftToeBase 25.992425 -0.000000 -0.000000
RightUpLeg -9.210609 -12.565383 -0.690692
RightLeg -4.823772 -0.000000 0.000000
RightFoot -16.144706 -23.600751 13.751080
RightToeBase 28.319601 -0.000000 -0.000000
997
root 5.909851 35.476222 -12.535318 10.913641 -10.859420 -1.785240
Spine -1.623900 -13.249374 -6.678516
Head -16.071878 12.482940 16.256999
LeftShoulder -33.633236 2.953556 14.925842
LeftArm 0.128111 -47.286092 -19.759792
LeftForeArm -0.000000 16.651744 -3.313942
LeftHand 8.687870 0.000000 24.751027
LeftHandThumb1 -26.253704 33.147579 0.000000
RightShoulder -0.848705 27.616543 -21.715096
RightArm 3.705434 44.735571 17.082095
RightForeArm 0.000000 -38.061038 12.142338
RightHand -4.046002 -0.000000 -6.354876
RightHandThumb1 -24.326973 -32.862282 -0.000000
LeftUpLeg -5.260277 12.870508 9.469483
LeftLeg 0.709489 -0.000000 -0.000000
LeftFoot -21.687355 11.051603 -19.867193
LeftToeBase 26.151975 -0.000000 -0.000000
RightUpLeg -9.184160 -12.206713 -0.124765
RightLeg -4.763872 -0.000000 0.000000
RightFoot -16.055202 -23.636310 13.526861
RightToeBase 28.527517 -0.000000 -0.000000
998
root 5.758927 35.466313 -12.536081 10.915388 -11.106303 -2.201932
Spine -1.642382 -13.333930 -7.237825
Head -15.835345 12.414000 16.745780
LeftShoulder -33.650250 2.683104 14.771938
LeftArm 0.318980 -47.145624 -20.036566
LeftForeArm -0.000000 16.656594 -3.199523
LeftHand 8.456524 -0.000000 24.529996
LeftHandThumb1 -26.253704 33.147579 0.000000
RightShoulder -0.819835 27.707204 -22.226431
RightArm 4.047047 44.620040 16.983902
RightForeArm -0.000000 -38.166359 12.055309
RightHand -3.786598 0.000000 -6.556165
RightHandThumb1 -24.326973 -32.862282 -0.000000
LeftUpLeg -4.968891 13.255006 10.123347
LeftLeg 0.576335 -0.000000 -0.000000
LeftFoot -21.693620 10.977952 -19.965151
LeftToeBase 26.204618 -0.000000 -0.000000
RightUpLeg -9.152104 -11.999283 0.478510
RightLeg -4.686306 -0.000000 0.000000
RightFoot -15.950329 -23.535816 13.279614
RightToeBase 28.697595 -0.000000 -0.000000
999
root 5.607233 35.455486 -12.535600 10.911846 -11.362353 -2.614665
Spine -1.647033 -13.380205 -7.814169
Head -15.625041 12.316474 17.281231
LeftShoulder -33.681298 2.418564 14.575789
LeftArm 0.557065 -46.931892 -20.311061
LeftForeArm 0.000000 16.755465 -3.060179
LeftHand 8.567623 -0.000000 24.584829
LeftHandThumb1 -26.253704 33.147579 0.000000
RightShoulder -0.803672 28.110689 -22.657607
RightArm 4.262964 44.151111 16.681881
RightForeArm -0.000000 -38.336693 12.049956
RightHand -3.918879 -0.000000 -6.491295
RightHandThumb1 -24.326973 -32.862282 -0.000000
LeftUpLeg -4.627799 13.656897 10.772229
LeftLeg 0.376892 -0.000000 -0.000000
LeftFoot -21.669308 10.909511 -20.090540
LeftToeBase 26.249788 -0.000000 -0.000000
RightUpLeg -9.076674 -11.710644 1.057171
RightLeg -4.660610 -0.000000 0.000000
RightFoot -15.818758 -23.495850 13.031891
RightToeBase 28.778672 -0.000000 -0.000000
1000
root 5.457282 35.442697 -12.538214 10.942150 -11.604790 -3.035034
Spine -1.700481 -13.437337 -8.342458
Head -15.405916 12.203718 17.759842
LeftShoulder -33.647883 2.183147 14.360393
LeftArm 0.667643 -46.849282 -20.506925
LeftForeArm -0.000000 16.867240 -2.901640
LeftHand 8.597212 0.000000 24.562762
LeftHandThumb1 -26.253704 33.147579 0.000000
RightShoulder -0.775957 28.336553 -23.142235
RightArm 4.502725 43.895967 16.464148
RightForeArm -0.000000 -38.471450 12.040281
RightHand -3.759232 -0.000000 -6.492053
RightHandThumb1 -24.326973 -32.862282 -0.000000
LeftUpLeg -4.328682 14.029162 11.428339
LeftLeg 0.192593 -0.000000 -0.000000
LeftFoot -21.666841 10.862058 -20.175769
LeftToeBase 26.326152 -0.000000 -0.000000
RightUpLeg -9.050651 -11.507902 1.665505
RightLeg -4.606546 -0.000000 0.000000
RightFoot -15.692962 -23.399026 12.745683
RightToeBase 28.905628 -0.000000 -0.000000
1001
root 5.307041 35.429503 -12.545387 10.976453 -11.757357 -3.455473
Spine -1.726004 -13.613066 -8.868114
Head -15.187717 12.142644 18.266313
LeftShoulder -33.670831 1.895736 14.245889
LeftArm 0.780523 -46.727049 -20.776670
LeftForeArm -0.000000 17.231770 -2.788285
LeftHand 8.475519 -0.000000 25.185987
LeftHandThumb1 -26.253704 33.147579 0.000000
RightShoulder -0.716948 28.447972 -23.532525
RightArm 4.782340 43.784715 16.243310
RightForeArm -0.000000 -38.465776 12.177678
RightHand -3.906215 0.000000 -6.555641
RightHandThumb1 -24.326973 -32.862282 -0.000000
LeftUpLeg -4.076300 14.311100 12.101277
LeftLeg 0.039412 -0.000000 -0.000000
LeftFoot -21.658727 10.794896 -20.254930
LeftToeBase 26.373788 -0.000000 -0.000000
RightUpLeg -9.015351 -11.403351 2.291095
RightLeg -4.562727 -0.000000 0.000000
RightFoot -15.573096 -23.284366 12.469253
RightToeBase 29.005180 -0.000000 -0.000000
